<svg width="27" height="26" viewBox="0 0 27 26" fill="none" xmlns="http://www.w3.org/2000/svg">
<path d="M1.58594 11.7061C1.03365 11.7061 0.585938 12.1538 0.585938 12.7061C0.585938 13.2583 1.03365 13.7061 1.58594 13.7061V12.7061V11.7061ZM24.6227 13.4132C25.0132 13.0226 25.0132 12.3895 24.6227 11.9989L18.2588 5.63499C17.8682 5.24446 17.2351 5.24446 16.8445 5.63499C16.454 6.02551 16.454 6.65868 16.8445 7.0492L22.5014 12.7061L16.8445 18.3629C16.454 18.7534 16.454 19.3866 16.8445 19.7771C17.2351 20.1676 17.8682 20.1676 18.2588 19.7771L24.6227 13.4132ZM1.58594 12.7061V13.7061H23.9156V12.7061V11.7061H1.58594V12.7061Z" fill="#EA7D28"/>
</svg>
