<svg width="36" height="39" viewBox="0 0 36 39" fill="none" xmlns="http://www.w3.org/2000/svg">
<path opacity="0.5" d="M34.3227 26.8589V36.2524C34.3227 36.7905 34.1089 37.3066 33.7284 37.6871C33.3479 38.0676 32.8318 38.2814 32.2937 38.2814H2.28774C2.02102 38.2818 1.75685 38.2296 1.51032 38.1278C1.26379 38.0261 1.03974 37.8767 0.851003 37.6882C0.662262 37.4998 0.51252 37.2759 0.410358 37.0296C0.308196 36.7832 0.255615 36.5191 0.255615 36.2524V26.8589C0.255615 26.32 0.469714 25.8031 0.850812 25.422C1.23191 25.0409 1.74879 24.8268 2.28774 24.8268H9.92466C10.0189 24.8812 10.0973 24.9591 10.1522 25.053C10.2071 25.1469 10.2366 25.2534 10.2378 25.3622V32.0285C10.2378 32.1896 10.3018 32.3441 10.4157 32.458C10.5296 32.5719 10.6841 32.6359 10.8452 32.6359H22.9534C23.0348 32.6384 23.1158 32.6246 23.1917 32.5952C23.2676 32.5658 23.3368 32.5214 23.3952 32.4648C23.4536 32.4081 23.5 32.3403 23.5317 32.2654C23.5634 32.1904 23.5797 32.1098 23.5797 32.0285V25.3779C23.5809 25.2691 23.6104 25.1625 23.6653 25.0687C23.7202 24.9748 23.7986 24.8968 23.8928 24.8425H32.3062C32.8398 24.8465 33.3503 25.0603 33.7276 25.4376C34.1048 25.8149 34.3186 26.3254 34.3227 26.8589Z" fill="white"/>
<path d="M34.5907 26.8589V36.2524C34.5899 36.7908 34.3754 37.3069 33.9944 37.6873C33.6134 38.0677 33.097 38.2814 32.5586 38.2814H2.54946C2.01105 38.2814 1.49463 38.0677 1.11362 37.6873C0.732612 37.3069 0.518164 36.7908 0.517334 36.2524V26.8589C0.518162 26.3202 0.732511 25.8038 1.11343 25.4229C1.49435 25.042 2.01076 24.8276 2.54946 24.8268H10.1864C10.2806 24.8812 10.359 24.9591 10.4139 25.053C10.4688 25.1469 10.4983 25.2534 10.4995 25.3622V32.0285C10.4995 32.1896 10.5635 32.3441 10.6774 32.458C10.7913 32.5719 10.9458 32.6359 11.1069 32.6359H23.2152C23.3763 32.6359 23.5308 32.5719 23.6447 32.458C23.7586 32.3441 23.8226 32.1896 23.8226 32.0285V25.3779C23.8238 25.2691 23.8533 25.1625 23.9082 25.0687C23.9631 24.9748 24.0415 24.8968 24.1357 24.8425H32.5492C33.0868 24.8408 33.6033 25.0519 33.9858 25.4297C34.3683 25.8075 34.5857 26.3213 34.5907 26.8589Z" fill="white"/>
<path d="M34.8529 25.0121V34.4056C34.8534 34.6726 34.8011 34.937 34.6991 35.1838C34.5971 35.4305 34.4475 35.6547 34.2587 35.8435C34.0699 36.0322 33.8457 36.1819 33.599 36.2839C33.3522 36.3859 33.0878 36.4381 32.8208 36.4377H2.81171C2.54499 36.4377 2.28091 36.3852 2.03453 36.283C1.78816 36.1808 1.56434 36.0311 1.37589 35.8423C1.18744 35.6536 1.03804 35.4296 0.936256 35.183C0.834474 34.9365 0.782306 34.6723 0.782717 34.4056V25.0121C0.782306 24.7454 0.834474 24.4812 0.936256 24.2347C1.03804 23.9882 1.18744 23.7641 1.37589 23.5754C1.56434 23.3866 1.78816 23.2369 2.03453 23.1348C2.28091 23.0326 2.54499 22.98 2.81171 22.98H10.4518C10.5468 23.0326 10.6259 23.1098 10.681 23.2034C10.7361 23.297 10.765 23.4037 10.7649 23.5123V30.1504C10.7624 30.2314 10.7761 30.3122 10.8053 30.3879C10.8345 30.4636 10.8786 30.5326 10.9349 30.591C10.9913 30.6493 11.0587 30.6958 11.1333 30.7277C11.2079 30.7596 11.2881 30.7762 11.3692 30.7766H23.4868C23.6479 30.7766 23.8024 30.7126 23.9163 30.5987C24.0303 30.4848 24.0943 30.3303 24.0943 30.1692V23.5123C24.0941 23.4037 24.1231 23.297 24.1781 23.2034C24.2332 23.1098 24.3124 23.0326 24.4074 22.98H32.8177C33.0849 22.9792 33.3497 23.0312 33.5968 23.133C33.8439 23.2347 34.0684 23.3843 34.2576 23.5732C34.4467 23.762 34.5966 23.9863 34.6988 24.2333C34.801 24.4802 34.8534 24.7449 34.8529 25.0121Z" stroke="#4D2C19" stroke-width="1.56558" stroke-miterlimit="10"/>
<path d="M30.4841 8.47295V20.5843C30.4845 20.6637 30.4691 20.7425 30.4389 20.8161C30.4087 20.8896 30.3642 20.9563 30.308 21.0125C30.2518 21.0687 30.185 21.1132 30.1115 21.1435C30.038 21.1737 29.9592 21.189 29.8798 21.1886H23.226C23.1464 21.1886 23.0676 21.2043 22.994 21.2349C22.9205 21.2655 22.8538 21.3103 22.7976 21.3667C22.7414 21.4232 22.697 21.4902 22.6668 21.5638C22.6366 21.6375 22.6213 21.7164 22.6217 21.796V28.4467C22.6217 28.6078 22.5577 28.7622 22.4438 28.8762C22.3299 28.9901 22.1754 29.0541 22.0143 29.0541H9.90292C9.82315 29.0541 9.74415 29.0384 9.67045 29.0078C9.59675 28.9773 9.5298 28.9326 9.4734 28.8762C9.41699 28.8198 9.37223 28.7528 9.3417 28.6791C9.31117 28.6054 9.29547 28.5264 9.29547 28.4467V21.796C9.29588 21.7164 9.28055 21.6375 9.25037 21.5638C9.22018 21.4902 9.17573 21.4232 9.11957 21.3667C9.06342 21.3103 8.99667 21.2655 8.92315 21.2349C8.84962 21.2043 8.77078 21.1886 8.69116 21.1886H2.03743C1.95795 21.189 1.87917 21.1737 1.80567 21.1435C1.73216 21.1132 1.66538 21.0687 1.60918 21.0125C1.55299 20.9563 1.50848 20.8896 1.47825 20.8161C1.44803 20.7425 1.4327 20.6637 1.43311 20.5843V8.47295C1.4327 8.39333 1.44803 8.31439 1.47822 8.24071C1.5084 8.16703 1.55284 8.10005 1.60899 8.0436C1.66515 7.98715 1.73191 7.94238 1.80544 7.91181C1.87896 7.88124 1.9578 7.86548 2.03743 7.86548H8.69116C8.77078 7.86549 8.84962 7.84976 8.92315 7.8192C8.99667 7.78863 9.06342 7.74386 9.11957 7.68741C9.17573 7.63096 9.22018 7.56394 9.25037 7.49026C9.28055 7.41658 9.29588 7.33768 9.29547 7.25806V0.607466C9.29547 0.527695 9.31117 0.448697 9.3417 0.374998C9.37223 0.3013 9.41699 0.234331 9.4734 0.177924C9.5298 0.121518 9.59675 0.0767759 9.67045 0.0462489C9.74415 0.0157219 9.82315 0 9.90292 0H22.0143C22.1754 0 22.3299 0.0640062 22.4438 0.177924C22.5577 0.291843 22.6217 0.446361 22.6217 0.607466V7.25806C22.6213 7.33768 22.6366 7.41658 22.6668 7.49026C22.697 7.56394 22.7414 7.63096 22.7976 7.68741C22.8538 7.74386 22.9205 7.78863 22.994 7.8192C23.0676 7.84976 23.1464 7.86549 23.226 7.86548H29.8798C29.9594 7.86548 30.0382 7.88124 30.1118 7.91181C30.1853 7.94238 30.252 7.98715 30.3082 8.0436C30.3644 8.10005 30.4088 8.16703 30.439 8.24071C30.4692 8.31439 30.4845 8.39333 30.4841 8.47295Z" fill="white"/>
<path d="M31.9596 10.1886V22.2999C31.9587 22.4605 31.8944 22.6142 31.7806 22.7274C31.6667 22.8406 31.5127 22.9042 31.3521 22.9042H24.7015C24.5407 22.905 24.3866 22.9693 24.2729 23.0831C24.1592 23.1968 24.0949 23.3508 24.0941 23.5117V30.1497C24.0941 30.2295 24.0784 30.3085 24.0478 30.3822C24.0173 30.4559 23.9726 30.5229 23.9162 30.5793C23.8598 30.6357 23.7928 30.6804 23.7191 30.711C23.6454 30.7415 23.5664 30.7572 23.4866 30.7572H11.369C11.2892 30.7572 11.2102 30.7415 11.1365 30.711C11.0628 30.6804 10.9959 30.6357 10.9395 30.5793C10.8831 30.5229 10.8383 30.4559 10.8078 30.3822C10.7773 30.3085 10.7616 30.2295 10.7616 30.1497V23.5117C10.7617 23.4031 10.7328 23.2964 10.6777 23.2028C10.6226 23.1092 10.5435 23.032 10.4484 22.9794C10.3589 22.931 10.259 22.9052 10.1573 22.9042H3.50979C3.34923 22.9042 3.19519 22.8406 3.08136 22.7274C2.96753 22.6142 2.90317 22.4605 2.90234 22.2999V10.1886C2.90234 10.1089 2.91807 10.0301 2.94863 9.9566C2.9792 9.88307 3.02399 9.81629 3.08044 9.76013C3.13689 9.70398 3.20387 9.65952 3.27755 9.62934C3.35123 9.59915 3.43017 9.58382 3.50979 9.58423H10.1604C10.2402 9.58423 10.3191 9.56855 10.3928 9.53802C10.4665 9.5075 10.5335 9.46276 10.5899 9.40635C10.6463 9.34994 10.6911 9.28297 10.7216 9.20927C10.7521 9.13558 10.7678 9.05658 10.7678 8.97681V2.32308C10.7687 2.16252 10.833 2.00881 10.9468 1.89557C11.0607 1.78232 11.2147 1.71875 11.3753 1.71875H23.4866C23.6472 1.71875 23.8012 1.78232 23.915 1.89557C24.0289 2.00881 24.0933 2.16252 24.0941 2.32308V8.97681C24.0941 9.05658 24.1098 9.13558 24.1403 9.20927C24.1708 9.28297 24.2156 9.34994 24.272 9.40635C24.3284 9.46276 24.3954 9.5075 24.4691 9.53802C24.5428 9.56855 24.6218 9.58423 24.7015 9.58423H31.3521C31.4317 9.58382 31.5107 9.59915 31.5843 9.62934C31.658 9.65952 31.725 9.70398 31.7815 9.76013C31.8379 9.81629 31.8827 9.88307 31.9133 9.9566C31.9438 10.0301 31.9596 10.1089 31.9596 10.1886Z" stroke="#4D2C19" stroke-width="1.56558" stroke-miterlimit="10"/>
</svg>
