<svg width="18" height="24" viewBox="0 0 18 24" fill="none" xmlns="http://www.w3.org/2000/svg">
<path opacity="0.5" d="M8.25934 7.95261L7.75993 8.28354L3.84188 3.25839L4.09777 3.08929C4.30902 2.94785 4.54627 2.84758 4.79589 2.79425C5.04552 2.74091 5.30262 2.73555 5.55246 2.77848C5.80231 2.82141 6.03996 2.91178 6.25182 3.04441C6.46367 3.17704 6.64555 3.34933 6.78702 3.55138L8.62222 6.15625C8.81881 6.43661 8.891 6.78304 8.82299 7.1197C8.75498 7.45636 8.55231 7.75586 8.25934 7.95261Z" fill="#FFCC66"/>
<path opacity="0.5" d="M16.4928 20.0012L15.9953 20.3316L12.0768 15.3046L12.3322 15.1337C12.5435 14.9925 12.7808 14.8924 13.0303 14.8393C13.2799 14.7861 13.537 14.7807 13.7867 14.8237C14.0365 14.8666 14.2741 14.9569 14.486 15.0893C14.6978 15.2218 14.8798 15.3939 15.0214 15.5958L16.861 18.2015C16.9586 18.3407 17.0265 18.4977 17.0608 18.6636C17.0952 18.8294 17.0952 19.0007 17.061 19.1679C17.0269 19.335 16.9591 19.4946 16.8616 19.6376C16.7641 19.7806 16.6388 19.9041 16.4928 20.0012Z" fill="#FFCC66"/>
<path opacity="0.5" d="M6.94583 7.53369L6.44642 7.86462C6.01963 8.14953 5.72404 8.58448 5.62463 9.07389C5.52522 9.56329 5.63014 10.0671 5.9163 10.4745L8.52219 14.1738C8.66406 14.3757 8.84622 14.5477 9.05827 14.6802C9.27032 14.8127 9.5081 14.9029 9.75802 14.9458C10.0079 14.9886 10.2651 14.9833 10.5148 14.93C10.7645 14.8768 11.0019 14.7766 11.2133 14.6354L11.7242 14.3014C11.8684 14.205 12.0304 14.1366 12.2007 14.1002C12.371 14.0638 12.5465 14.0601 12.717 14.0893C12.8875 14.1185 13.0498 14.18 13.1945 14.2703C13.3392 14.3606 13.4635 14.4779 13.5604 14.6156L15.9281 17.9766C16.0248 18.1136 16.0923 18.2682 16.1267 18.4317C16.1611 18.5951 16.1616 18.7641 16.1284 18.929C16.0951 19.0939 16.0286 19.2515 15.9328 19.3927C15.8369 19.5339 15.7136 19.656 15.5698 19.752L13.8687 20.8898C13.5775 21.086 13.238 21.2028 12.8868 21.2274C12.5356 21.2521 12.1859 21.1837 11.8755 21.0296C8.8134 19.4984 6.19935 17.2592 4.2609 14.5071C2.32244 11.7549 1.11834 8.57321 0.753405 5.23888C0.717167 4.90147 0.776899 4.5591 0.926187 4.24856C1.07548 3.93802 1.30868 3.67107 1.60073 3.47636L2.78723 2.68142C3.21419 2.39675 3.73731 2.28551 4.2416 2.37216C4.74588 2.45881 5.19005 2.73626 5.47647 3.14351L7.31167 5.74838C7.50386 6.02844 7.57321 6.3724 7.50479 6.70628C7.43638 7.04015 7.23566 7.33727 6.94583 7.53369Z" fill="#FFCC66"/>
<path d="M8.25934 7.95261L7.75993 8.28354L3.84188 3.25839L4.09777 3.08929C4.30902 2.94785 4.54627 2.84758 4.79589 2.79425C5.04552 2.74091 5.30262 2.73555 5.55246 2.77848C5.80231 2.82141 6.03996 2.91178 6.25182 3.04441C6.46367 3.17704 6.64555 3.34933 6.78702 3.55138L8.62222 6.15625C8.81881 6.43661 8.891 6.78304 8.82299 7.1197C8.75498 7.45636 8.55231 7.75586 8.25934 7.95261Z" stroke="#4D2C19" stroke-width="0.78538" stroke-miterlimit="10"/>
<path d="M16.8833 20.1667L15.1822 21.3045C14.8914 21.5007 14.5522 21.6174 14.2012 21.642C13.8503 21.6665 13.5009 21.598 13.1909 21.4438C10.1271 19.9146 7.51157 17.6761 5.57254 14.9237C3.63352 12.1713 2.42996 8.98867 2.06691 5.65359C2.03023 5.31614 2.08976 4.97364 2.23909 4.66302C2.38841 4.3524 2.62186 4.08547 2.91423 3.89105L3.84533 3.26707L7.76245 8.29639C7.55071 8.43713 7.36899 8.61637 7.22769 8.82384C7.0864 9.03131 6.98831 9.26292 6.93906 9.50539C6.88981 9.74785 6.89036 9.99641 6.94069 10.2368C6.99101 10.4772 7.09012 10.7047 7.23233 10.9063L9.83821 14.6056C9.97968 14.8076 10.1616 14.9799 10.3734 15.1125C10.5853 15.2452 10.8229 15.3355 11.0728 15.3785C11.3226 15.4214 11.5797 15.4161 11.8294 15.3627C12.079 15.3094 12.3162 15.2091 12.5275 15.0677L13.0383 14.7337C13.1827 14.6372 13.3447 14.5689 13.5152 14.5327C13.6857 14.4964 13.8612 14.4928 14.0318 14.5221C14.2024 14.5515 14.3647 14.6132 14.5093 14.7037C14.654 14.7942 14.7783 14.9118 14.875 15.0497L17.2422 18.4089C17.4313 18.6845 17.4997 19.023 17.4326 19.3517C17.3655 19.6803 17.1683 19.973 16.8833 20.1667Z" stroke="#4D2C19" stroke-width="0.78538" stroke-miterlimit="10"/>
<path d="M12.3184 15.4524L16.3531 20.5153" stroke="#4D2C19" stroke-width="0.78538" stroke-miterlimit="10"/>
<path d="M16.3656 13.7666C16.3571 14.0125 16.5495 14.2187 16.7954 14.2271C17.0412 14.2356 17.2474 14.0432 17.2559 13.7973L16.3656 13.7666ZM10.004 7.58435C9.84253 7.76998 9.86215 8.05134 10.0478 8.21277L13.0729 10.8435C13.2585 11.0049 13.5399 10.9853 13.7013 10.7997C13.8627 10.614 13.8431 10.3327 13.6575 10.1712L10.9685 7.83283L13.3069 5.14385C13.4684 4.95821 13.4487 4.67686 13.2631 4.51542C13.0775 4.35399 12.7961 4.37361 12.6347 4.55924L10.004 7.58435ZM16.8107 13.782L17.2559 13.7973C17.3683 10.5386 16.7071 8.7624 15.3123 7.92593C14.6362 7.52053 13.8405 7.37252 13.005 7.33438C12.1715 7.29632 11.249 7.36675 10.3091 7.43228L10.3401 7.87665L10.3711 8.32101C11.3302 8.25413 12.1938 8.18915 12.9644 8.22433C13.733 8.25942 14.3593 8.39327 14.8541 8.68996C15.8007 9.25766 16.4759 10.5665 16.3656 13.7666L16.8107 13.782Z" fill="#4D2C19"/>
</svg>
