<svg width="26" height="26" viewBox="0 0 26 26" fill="none" xmlns="http://www.w3.org/2000/svg">
<path d="M23.5109 8.65103C23.5109 12.6797 20.0244 15.9456 15.7234 15.9456C13.601 15.9456 11.6768 15.1503 10.2722 13.8604C8.83042 12.5365 7.93592 10.6916 7.93592 8.65103C7.93592 4.62234 11.4225 1.35645 15.7234 1.35645C20.0244 1.35645 23.5109 4.62234 23.5109 8.65103Z" fill="#FFEFE2"/>
<path d="M0.58621 23.458C0.0564578 23.9877 0.0564578 24.8466 0.58621 25.3764C1.11596 25.9061 1.97486 25.9061 2.50461 25.3764L1.54541 24.4172L0.58621 23.458ZM10.3628 15.5999L9.40355 14.6407L0.58621 23.458L1.54541 24.4172L2.50461 25.3764L11.322 16.5591L10.3628 15.5999Z" fill="#EA7D28"/>
<path d="M15.708 1.35645C20.0247 1.35657 23.5127 4.83768 23.5127 9.11816C23.5127 13.3987 20.0247 16.8798 15.708 16.8799C13.5783 16.8799 11.6509 16.0335 10.2422 14.6592C8.79615 13.2483 7.90234 11.2875 7.90234 9.11816C7.90238 4.8376 11.3912 1.35645 15.708 1.35645Z" stroke="#EA7D28" stroke-width="2.71303"/>
</svg>
