<svg width="43" height="40" viewBox="0 0 43 40" fill="none" xmlns="http://www.w3.org/2000/svg">
<path d="M22.0104 26.5009C22.0109 28.745 21.3229 30.9352 20.0393 32.7759C18.7556 34.6165 16.9381 36.0191 14.8322 36.7941C12.7262 37.5692 10.4331 37.6795 8.26251 37.1101C6.09188 36.5407 4.14821 35.319 2.69386 33.61C1.23858 31.2635 0.722086 28.4544 1.24755 25.7437C1.77302 23.0331 3.30176 20.6204 5.52842 18.9876C7.75508 17.3549 10.5157 16.6223 13.259 16.9361C16.0022 17.2499 18.5261 18.587 20.3265 20.6804C21.4269 22.4223 22.0108 24.4406 22.0104 26.5009Z" fill="white"/>
<path d="M5.64551 28.4807C6.43921 31.5248 9.24674 33.5573 12.2068 33.3519C13.5133 33.2424 14.7544 32.7336 15.7618 31.8945C16.7691 31.0553 17.4938 29.9265 17.8374 28.6612" stroke="#4D2C19" stroke-width="1.55628" stroke-miterlimit="10" stroke-linecap="round"/>
<path d="M41.5275 26.1305C41.528 28.3746 40.84 30.5648 39.5563 32.4055C38.2727 34.2462 36.4552 35.6487 34.3492 36.4237C32.2433 37.1988 29.9502 37.3091 27.7796 36.7397C25.6089 36.1703 23.6653 34.9486 22.2109 33.2396C20.7368 30.8921 20.2064 28.0734 20.7265 25.3507C21.2466 22.628 22.7786 20.2032 25.0143 18.5644C27.2499 16.9256 30.0232 16.1942 32.7763 16.5175C35.5293 16.8408 38.0578 18.1948 39.8529 20.307C40.9506 22.0507 41.5313 24.07 41.5275 26.1305Z" fill="white"/>
<path d="M25.1636 28.1008C25.9542 31.148 28.7648 33.1805 31.7217 32.9751C33.0238 32.8642 34.2607 32.3574 35.2661 31.5227C36.2716 30.6881 36.9975 29.5656 37.3461 28.3062" stroke="#4D2C19" stroke-width="1.55628" stroke-miterlimit="10" stroke-linecap="round"/>
<path d="M32.8555 11.8843C32.8552 14.1277 32.1669 16.317 30.8834 18.1569C29.6 19.9968 27.783 21.3987 25.6778 22.1736C23.5725 22.9486 21.2802 23.0591 19.1102 22.4904C16.9401 21.9218 14.9967 20.7012 13.542 18.9934C12.0802 16.6459 11.5593 13.8327 12.0838 11.1174C12.6083 8.40207 14.1394 5.98523 16.3703 4.35099C18.6013 2.71674 21.3674 1.98578 24.1144 2.30457C26.8615 2.62337 29.3866 3.96834 31.184 6.07007C32.2789 7.81148 32.8584 9.82732 32.8555 11.8843Z" fill="white"/>
<path d="M32.1798 11.7442C32.1789 14.318 31.2725 16.8095 29.6192 18.7822C27.966 20.7548 25.6713 22.0828 23.1373 22.5336C20.6032 22.9844 17.9914 22.5291 15.7592 21.2477C13.5271 19.9662 11.8171 17.9402 10.9286 15.5245C10.0402 13.1089 10.0301 10.4577 10.9001 8.03534C11.77 5.613 13.4645 3.57401 15.6868 2.27553C17.9091 0.977047 20.5174 0.501899 23.0548 0.933316C25.5922 1.36473 27.8969 2.67521 29.5652 4.63517C31.2537 6.61893 32.1806 9.13915 32.1798 11.7442Z" stroke="#4D2C19" stroke-width="1.55628" stroke-miterlimit="10"/>
<path d="M15.1223 12.1177C15.916 15.1649 18.7267 17.1973 21.6836 16.9919C22.9891 16.8787 24.2284 16.3676 25.2342 15.5277C26.2399 14.6877 26.9638 13.5594 27.308 12.2951" stroke="#4D2C19" stroke-width="1.55628" stroke-miterlimit="10" stroke-linecap="round"/>
<path d="M22.703 28.0976C22.7028 30.6715 21.797 33.1633 20.1442 35.1365C18.4913 37.1096 16.1968 38.4383 13.6628 38.8896C11.1287 39.341 8.51659 38.8862 6.28412 37.6051C4.05165 36.3239 2.34117 34.2981 1.45237 31.8824C0.563569 29.4668 0.55312 26.8155 1.42285 24.3929C2.29259 21.9703 3.98704 19.9311 6.20934 18.6324C8.43165 17.3337 11.0401 16.8583 13.5776 17.2897C16.1152 17.721 18.4201 19.0315 20.0884 20.9916C21.776 22.9747 22.7028 25.4936 22.703 28.0976Z" stroke="#4D2C19" stroke-width="1.55628" stroke-miterlimit="10"/>
<path d="M41.9071 27.7269C41.9062 30.3007 40.9998 32.7922 39.3465 34.7648C37.6933 36.7375 35.3986 38.0655 32.8646 38.5163C30.3305 38.967 27.7187 38.5118 25.4865 37.2303C23.2544 35.9488 21.5443 33.9228 20.6559 31.5072C19.7675 29.0916 19.7574 26.4404 20.6273 24.018C21.4973 21.5957 23.1918 19.5567 25.4141 18.2582C27.6364 16.9597 30.2447 16.4846 32.7821 16.916C35.3195 17.3474 37.6242 18.6579 39.2925 20.6178C40.9808 22.6017 41.9077 25.1219 41.9071 27.7269Z" stroke="#4D2C19" stroke-width="1.55628" stroke-miterlimit="10"/>
</svg>
