<svg width="35" height="40" viewBox="0 0 35 40" fill="none" xmlns="http://www.w3.org/2000/svg">
<path d="M27.4704 10.1448C27.4677 12.3855 26.7785 14.5716 25.4956 16.4087C24.2128 18.2458 22.3978 19.6458 20.2952 20.4201C18.1925 21.1944 15.9031 21.3059 13.7351 20.7396C11.5672 20.1732 9.62481 18.9562 8.16953 17.2524C6.69847 14.9053 6.17033 12.0884 6.69127 9.36779C7.21221 6.64722 8.74361 4.22467 10.9777 2.58703C13.2117 0.949398 15.9829 0.218067 18.7341 0.540052C21.4853 0.862037 24.0127 2.21346 25.8083 4.32269C26.9015 6.06728 27.4778 8.08602 27.4704 10.1448Z" fill="white"/>
<path d="M28.4124 11.4304C28.4121 14.0038 27.5062 16.495 25.8535 18.4676C24.2009 20.4402 21.9068 21.7683 19.3732 22.2194C16.8397 22.6704 14.2282 22.2156 11.9963 20.9346C9.76438 19.6535 8.0544 17.628 7.16591 15.2129C6.27743 12.7977 6.2671 10.147 7.13673 7.72496C8.00636 5.30296 9.7005 3.26417 11.9223 1.96579C14.1442 0.667421 16.7521 0.192265 19.2891 0.623549C21.8261 1.05483 24.1304 2.36505 25.7984 4.32469C27.486 6.30763 28.4127 8.82655 28.4124 11.4304Z" stroke="#4D2C19" stroke-width="0.936934" stroke-miterlimit="10"/>
<path opacity="0.5" d="M24.3854 11.4735C23.6939 15.3018 20.3097 18.0321 16.5864 17.8971C13.1609 17.7753 10.1627 15.2587 9.39819 11.779L24.3854 11.4735Z" fill="white"/>
<path d="M24.901 12.4999C24.2096 16.3301 20.8254 19.0584 17.102 18.9235C13.6765 18.8017 10.6784 16.287 9.91382 12.8072L24.901 12.4999Z" stroke="#4D2C19" stroke-width="0.936934" stroke-miterlimit="10" stroke-linecap="round"/>
<path d="M12.8355 23.5569C14.1784 25.5557 15.5213 27.5582 16.8643 29.5645L21.1554 23.3807H27.2867C27.2867 23.3807 32.6123 24.8142 32.6647 32.4109V36.8576H0.823975L0.90268 30.1117C0.90268 30.1117 1.28682 24.1153 6.69855 23.5531L12.8355 23.5569Z" fill="white"/>
<path opacity="0.5" d="M25.5928 35.5611C27.3356 35.5611 28.7484 34.1483 28.7484 32.4055C28.7484 30.6627 27.3356 29.2499 25.5928 29.2499C23.8501 29.2499 22.4373 30.6627 22.4373 32.4055C22.4373 34.1483 23.8501 35.5611 25.5928 35.5611Z" fill="white"/>
<path d="M7.09133 36.1079H4.7771V29.3938C4.77718 29.0712 4.86119 28.7543 5.02086 28.474C5.18053 28.1938 5.41037 27.9599 5.6878 27.7954L9.37932 25.6123V22.1981" stroke="#4D2C19" stroke-width="0.936934" stroke-miterlimit="10" stroke-linecap="round"/>
<path d="M11.5612 36.1076H13.8754V29.2773C13.8755 28.9902 13.8008 28.708 13.6585 28.4585C13.5162 28.2091 13.3113 28.0011 13.064 27.8551L9.27319 25.6064V22.1923" stroke="#4D2C19" stroke-width="0.936934" stroke-miterlimit="10" stroke-linecap="round"/>
<path d="M26.6443 22.0145V29.5025" stroke="#4D2C19" stroke-width="0.936934" stroke-miterlimit="10"/>
<path d="M26.3351 36.1081C28.2808 36.1081 29.858 34.5309 29.858 32.5853C29.858 30.6396 28.2808 29.0624 26.3351 29.0624C24.3895 29.0624 22.8123 30.6396 22.8123 32.5853C22.8123 34.5309 24.3895 36.1081 26.3351 36.1081Z" stroke="#4D2C19" stroke-width="0.936934" stroke-miterlimit="10"/>
<path d="M33.7688 37.0972V30.713C33.7253 29.4437 33.4922 28.1881 33.0774 26.9877C31.6738 23.0657 28.745 22.3031 28.299 22.1981H21.6917L18.2419 28.0202V38.7463" stroke="#4D2C19" stroke-width="0.936934" stroke-miterlimit="10" stroke-linecap="round"/>
<path d="M16.6194 28.0202L13.0309 22.1981H6.21191C5.84838 22.2356 2.68716 22.6404 1.18619 26.4556C0.738065 27.6478 0.495396 28.9074 0.468506 30.1808V37.0972" stroke="#4D2C19" stroke-width="0.936934" stroke-miterlimit="10" stroke-linecap="round"/>
</svg>
