<svg width="29" height="40" viewBox="0 0 29 40" fill="none" xmlns="http://www.w3.org/2000/svg">
<path opacity="0.5" d="M20.9496 14.0433H6.18526C5.82837 14.0433 5.53906 14.3329 5.53906 14.69V16.3053C5.53906 16.6624 5.82837 16.9519 6.18526 16.9519H20.9496C21.3064 16.9519 21.5958 16.6624 21.5958 16.3053V14.69C21.5958 14.3329 21.3064 14.0433 20.9496 14.0433Z" fill="white"/>
<path opacity="0.5" d="M20.404 14.0433H6.86397C6.50709 14.0433 6.21777 14.3329 6.21777 14.69V16.3053C6.21777 16.6624 6.50709 16.9519 6.86397 16.9519H20.404C20.7609 16.9519 21.0502 16.6624 21.0502 16.3053V14.69C21.0502 14.3329 20.7609 14.0433 20.404 14.0433Z" fill="#FFE5B3"/>
<path opacity="0.5" d="M17.3749 34.9165C17.3319 35.034 17.2781 35.1473 17.2141 35.2548C17.0505 35.5294 16.8443 35.7763 16.6033 35.9861L15.0383 37.4049C14.6445 37.7625 14.1318 37.9606 13.6 37.9606C13.0683 37.9606 12.5556 37.7625 12.1618 37.4049C11.7746 37.0557 11.3892 36.7046 11.0057 36.3517C10.5985 36.0224 10.2508 35.6255 9.9778 35.1784C9.63762 34.4989 9.513 33.7316 9.62062 32.9793C9.72968 31.8715 9.75149 27.9424 9.72695 22.1443C9.72695 21.645 9.72695 21.1293 9.72695 20.6027C9.72695 19.465 9.72695 18.2644 9.70241 17.0093H17.5494C17.5494 17.5968 17.5494 18.1716 17.5494 18.7337C17.5494 18.9547 17.5494 19.173 17.5494 19.3885C17.5249 27.3012 17.5304 32.6164 17.5958 33.2549C17.646 33.8183 17.5706 34.3858 17.3749 34.9165Z" fill="#FFE5B3"/>
<path d="M19.0463 31.2766L11.2593 35.2248" stroke="#4D2C19" stroke-width="1.36426" stroke-miterlimit="10"/>
<path d="M22.0482 14.3164H8.35813C7.7046 14.3164 7.1748 14.8466 7.1748 15.5006V16.0408C7.1748 16.6948 7.7046 17.225 8.35813 17.225H22.0482C22.7017 17.225 23.2315 16.6948 23.2315 16.0408V15.5006C23.2315 14.8466 22.7017 14.3164 22.0482 14.3164Z" stroke="#4D2C19" stroke-width="1.36426" stroke-miterlimit="10"/>
<path opacity="0.5" d="M25.4732 14.0025H1.2368C-0.126478 7.78698 -0.808123 3.69966 1.58852 1.68329C3.28989 0.250823 6.24821 0.119863 8.32585 0.840191C11.0142 1.77061 11.3823 3.80883 13.3809 3.78973C15.3794 3.77063 15.5621 1.80881 18.4332 0.840191C20.1291 0.267203 22.6921 0.136245 24.3307 1.26039C27.2127 3.24129 26.4793 8.59735 25.4732 14.0025Z" fill="white"/>
<path d="M27.1089 14.2755H2.87254C1.50926 8.05993 0.827619 3.97261 3.22426 1.95624C4.92563 0.523772 7.88395 0.392813 9.96159 1.11314C12.65 2.04356 13.0181 4.08178 15.0166 4.06268C17.0152 4.04358 17.1979 2.08176 20.0689 1.11314C21.7648 0.540152 24.3278 0.409195 25.9665 1.53334C28.8484 3.51424 28.115 8.8703 27.1089 14.2755Z" stroke="#4D2C19" stroke-width="1.36426" stroke-miterlimit="10"/>
<path d="M13.1189 3.26587C15.1789 4.79842 17.7177 5.54531 20.2788 5.37227" stroke="#4D2C19" stroke-width="1.36426" stroke-miterlimit="10" stroke-linecap="round"/>
<path d="M19.012 35.1895C18.9689 35.307 18.9151 35.4203 18.8511 35.5278C18.6875 35.8024 18.4814 36.0493 18.2403 36.2591L16.3318 37.9862C16.031 38.2585 15.6399 38.4092 15.2343 38.4092C14.8288 38.4092 14.4376 38.2585 14.1369 37.9862C13.6379 37.5306 13.1362 37.0776 12.64 36.622C12.2328 36.2927 11.8851 35.8958 11.6121 35.4487C11.2719 34.7692 11.1473 34.0019 11.2549 33.2495C11.364 32.1418 11.3858 28.2127 11.3612 22.4146C11.3612 21.9153 11.3612 21.3996 11.3612 20.873C11.3612 19.7352 11.3476 18.5347 11.3367 17.2795H19.1837C19.1837 17.8671 19.1837 18.4419 19.1837 19.004C19.1837 19.225 19.1837 19.4432 19.1837 19.6588C19.1592 27.5715 19.1646 32.8866 19.2301 33.5251C19.2816 34.0892 19.2071 34.6578 19.012 35.1895Z" stroke="#4D2C19" stroke-width="1.36426" stroke-miterlimit="10"/>
<path d="M19.0463 20.2834L11.2593 24.2343" stroke="#4D2C19" stroke-width="1.36426" stroke-miterlimit="10"/>
<path d="M15.6954 17.1292L11.1387 19.6625" stroke="#4D2C19" stroke-width="1.36426" stroke-miterlimit="10"/>
<path d="M19.0463 26.1172L11.2593 30.0653" stroke="#4D2C19" stroke-width="1.36426" stroke-miterlimit="10"/>
</svg>
