<svg width="38" height="40" viewBox="0 0 38 40" fill="none" xmlns="http://www.w3.org/2000/svg">
<path d="M31.4786 16.1777C31.2519 17.0078 30.8118 18.618 30.3751 20.2215C30.2522 20.641 30.0962 21.0501 29.9084 21.4449C29.065 23.2884 28.9284 25.2352 28.8583 27.2054C28.7617 29.929 28.4016 32.6226 27.3348 35.2062C27.1129 35.7418 26.8311 36.2507 26.4948 36.723C25.0313 38.7865 22.161 38.8732 20.6642 36.8197C20.0662 35.9166 19.6046 34.9304 19.2941 33.8927C18.8207 32.5059 18.514 31.0658 18.0973 29.6623C17.9517 29.1992 17.743 28.7584 17.4773 28.3522C16.6572 27.0821 14.9637 26.9421 14.0736 28.1688C13.4761 29.0716 12.9997 30.049 12.6568 31.0758C12.0134 32.7693 11.48 34.5028 10.8599 36.2063C10.6943 36.5918 10.4618 36.9451 10.1732 37.2497C9.89691 37.5883 9.55047 37.8631 9.15777 38.0549C8.76507 38.2467 8.33544 38.3512 7.8985 38.361C7.46155 38.3708 7.02766 38.2858 6.62673 38.1118C6.2258 37.9378 5.86739 37.6789 5.57613 37.3531C4.52142 36.1991 3.82629 34.7625 3.57594 33.2193C3.13787 30.9809 2.82843 28.7192 2.64918 26.4454C2.54814 24.8039 2.22172 23.1841 1.6791 21.6316C1.01237 19.7981 0.345638 17.9379 0.0756123 16.0377C-0.377764 12.7607 1.25239 10.2372 4.11599 8.42035C5.73615 7.39025 7.5663 7.51692 9.36981 7.99363C10.2932 8.23365 11.21 8.49035 12.1101 8.79371C14.3754 9.57837 16.8366 9.59244 19.1107 8.83371C20.2442 8.47368 21.4043 8.167 22.5678 7.89365C23.5869 7.63417 24.654 7.62727 25.6764 7.87358C26.6989 8.1199 27.6458 8.61198 28.435 9.30711C30.4385 10.9673 31.4886 13.0108 31.4786 16.1777Z" fill="white"/>
<path d="M14.5461 7.177C15.2333 7.33235 15.9034 7.5557 16.5463 7.84373C17.3086 8.20556 18.0381 8.63274 18.7266 9.1205C19.57 9.63055 20.9701 10.0739 23.3636 9.63723" stroke="#4D2C19" stroke-width="1.66682" stroke-miterlimit="10" stroke-linecap="round"/>
<path d="M33.1458 14.8277C32.9191 15.7211 32.4791 17.4513 32.0424 19.1614C31.9211 19.6172 31.7651 20.063 31.5756 20.4949C30.7322 22.4951 30.5956 24.572 30.5256 26.6955C30.4289 29.6224 30.0689 32.5227 29.0021 35.283C28.7825 35.8555 28.5008 36.4021 28.162 36.9131C26.6985 39.1366 23.8283 39.2267 22.3314 37.0198C21.7292 36.0392 21.268 34.9787 20.9613 33.8695C20.4879 32.376 20.1813 30.8292 19.7646 29.3157C19.6202 28.8217 19.4118 28.3487 19.1445 27.9089C18.3244 26.5421 16.6309 26.3921 15.7408 27.7122C15.1403 28.6916 14.6644 29.742 14.324 30.8392C13.6806 32.6627 13.1472 34.5262 12.5272 36.3564C12.3645 36.7676 12.1322 37.1476 11.8405 37.4798C10.597 39.0333 8.55683 39.0866 7.24337 37.5932C6.17628 36.3255 5.48363 34.7855 5.24318 33.1461C4.80487 30.7352 4.4955 28.3026 4.31642 25.8588C4.2167 24.0975 3.89066 22.3563 3.34633 20.6783C2.6796 18.7047 2.01287 16.7012 1.74285 14.6577C1.28947 11.134 2.91962 8.41711 5.78323 6.4636C7.40338 5.35683 9.23354 5.49351 11.037 6.00355C11.9605 6.26358 12.8772 6.53696 13.7773 6.86366C16.0316 7.70925 18.5133 7.72457 20.778 6.90696C21.9114 6.52026 23.0715 6.18689 24.235 5.90687C26.4519 5.35348 28.3987 5.90689 30.1022 7.42703C32.1057 9.22053 33.1558 11.414 33.1458 14.8277Z" stroke="#4D2C19" stroke-width="1.36" stroke-miterlimit="10" stroke-linecap="round"/>
<path d="M36.6838 8.33616V5.91593C36.6838 4.54866 36.6838 3.86502 36.3469 3.419C36.01 2.97297 35.2483 2.75643 33.7248 2.32336C32.6839 2.02748 31.7663 1.67101 31.0333 1.34559C30.0337 0.901901 29.534 0.680054 29.1805 0.680054C28.8271 0.680054 28.3273 0.901901 27.3278 1.34559C26.5947 1.67101 25.6772 2.02747 24.6363 2.32336C23.1128 2.75643 22.3511 2.97297 22.0142 3.419C21.6772 3.86502 21.6772 4.54866 21.6772 5.91593V8.33616C21.6772 13.0259 25.8981 15.8396 28.0084 16.9534C28.5145 17.2205 28.7675 17.354 29.1805 17.354C29.5936 17.354 29.8466 17.2205 30.3527 16.9534C32.463 15.8396 36.6838 13.0259 36.6838 8.33616Z" fill="white" stroke="#4D2C19" stroke-width="1.36" stroke-linecap="round"/>
<path d="M26.6794 9.85067C26.6794 9.85067 27.5131 9.85067 28.3468 11.5181C28.3468 11.5181 30.9951 7.34957 33.349 6.51587" stroke="#4D2C19" stroke-width="1.36" stroke-linecap="round" stroke-linejoin="round"/>
</svg>
